<svg xmlns="http://www.w3.org/2000/svg" xmlns:xlink="http://www.w3.org/1999/xlink" width="400" zoomAndPan="magnify" viewBox="0 0 300 299.999988" height="400" preserveAspectRatio="xMidYMid meet" version="1.0"><defs><clipPath id="6b8d5190e7"><path d="M 13 40 L 287.148438 40 L 287.148438 260.917969 L 13 260.917969 Z M 13 40 " clip-rule="nonzero"/></clipPath></defs><g clip-path="url(#6b8d5190e7)"><path fill="#ff5757" d="M 287.347656 46.007812 L 287.347656 44.566406 C 287.394531 44.21875 287.394531 43.871094 287.347656 43.519531 C 287.207031 43.160156 286.988281 42.855469 286.695312 42.605469 L 285.910156 41.429688 L 284.992188 41.429688 C 284.644531 41.128906 284.253906 40.914062 283.816406 40.773438 L 223.644531 40.773438 C 223.214844 40.773438 222.789062 40.816406 222.367188 40.898438 C 221.945312 40.984375 221.539062 41.105469 221.140625 41.273438 C 220.746094 41.4375 220.367188 41.636719 220.011719 41.875 C 219.652344 42.113281 219.324219 42.386719 219.019531 42.6875 C 218.714844 42.992188 218.445312 43.324219 218.207031 43.679688 C 217.96875 44.039062 217.765625 44.414062 217.601562 44.8125 C 217.4375 45.207031 217.3125 45.617188 217.230469 46.039062 C 217.144531 46.460938 217.105469 46.882812 217.105469 47.3125 C 217.105469 47.742188 217.144531 48.167969 217.230469 48.589844 C 217.3125 49.011719 217.4375 49.421875 217.601562 49.816406 C 217.765625 50.214844 217.96875 50.589844 218.207031 50.949219 C 218.445312 51.304688 218.714844 51.636719 219.019531 51.9375 C 219.324219 52.242188 219.652344 52.515625 220.011719 52.753906 C 220.367188 52.992188 220.746094 53.191406 221.140625 53.355469 C 221.539062 53.519531 221.945312 53.644531 222.367188 53.730469 C 222.789062 53.8125 223.214844 53.855469 223.644531 53.855469 L 266.417969 53.855469 L 164.519531 171.582031 L 126.058594 130.378906 C 125.429688 129.679688 124.679688 129.160156 123.804688 128.816406 C 122.929688 128.46875 122.027344 128.335938 121.089844 128.414062 C 120.175781 128.460938 119.308594 128.6875 118.488281 129.097656 C 117.667969 129.507812 116.964844 130.066406 116.378906 130.769531 L 14.871094 249.9375 C 14.597656 250.269531 14.359375 250.625 14.152344 251.007812 C 13.949219 251.386719 13.78125 251.78125 13.652344 252.191406 C 13.523438 252.605469 13.4375 253.023438 13.390625 253.453125 C 13.34375 253.882812 13.339844 254.3125 13.375 254.742188 C 13.410156 255.171875 13.488281 255.59375 13.605469 256.007812 C 13.722656 256.421875 13.882812 256.820312 14.078125 257.207031 C 14.273438 257.589844 14.503906 257.953125 14.769531 258.292969 C 15.035156 258.632812 15.332031 258.941406 15.65625 259.226562 C 15.980469 259.503906 16.328125 259.75 16.703125 259.960938 C 17.074219 260.171875 17.464844 260.34375 17.875 260.476562 C 18.28125 260.609375 18.699219 260.699219 19.121094 260.75 C 19.546875 260.796875 19.976562 260.804688 20.402344 260.765625 C 20.828125 260.730469 21.246094 260.652344 21.660156 260.53125 C 22.070312 260.410156 22.464844 260.25 22.84375 260.050781 C 23.222656 259.851562 23.578125 259.613281 23.910156 259.34375 C 24.242188 259.074219 24.542969 258.773438 24.8125 258.441406 L 121.613281 144.636719 L 160.070312 184.53125 C 160.382812 184.863281 160.722656 185.15625 161.09375 185.414062 C 161.46875 185.671875 161.859375 185.890625 162.277344 186.070312 C 162.691406 186.25 163.121094 186.382812 163.566406 186.476562 C 164.011719 186.566406 164.457031 186.613281 164.910156 186.613281 C 165.363281 186.613281 165.8125 186.566406 166.253906 186.476562 C 166.699219 186.382812 167.128906 186.25 167.542969 186.070312 C 167.960938 185.890625 168.355469 185.671875 168.726562 185.414062 C 169.097656 185.15625 169.4375 184.863281 169.75 184.53125 L 274.398438 64.058594 L 274.398438 105.917969 C 274.398438 106.347656 274.441406 106.769531 274.523438 107.191406 C 274.609375 107.613281 274.730469 108.023438 274.894531 108.417969 C 275.058594 108.816406 275.261719 109.191406 275.5 109.550781 C 275.738281 109.90625 276.011719 110.238281 276.3125 110.542969 C 276.617188 110.84375 276.949219 111.117188 277.304688 111.355469 C 277.660156 111.59375 278.039062 111.796875 278.4375 111.960938 C 278.832031 112.125 279.242188 112.246094 279.664062 112.332031 C 280.082031 112.414062 280.507812 112.457031 280.9375 112.457031 C 281.367188 112.457031 281.792969 112.414062 282.214844 112.332031 C 282.636719 112.246094 283.042969 112.125 283.441406 111.960938 C 283.839844 111.796875 284.214844 111.59375 284.570312 111.355469 C 284.929688 111.117188 285.257812 110.84375 285.5625 110.542969 C 285.867188 110.238281 286.136719 109.90625 286.375 109.550781 C 286.617188 109.191406 286.816406 108.816406 286.980469 108.417969 C 287.144531 108.023438 287.269531 107.613281 287.351562 107.191406 C 287.4375 106.769531 287.480469 106.347656 287.480469 105.917969 L 287.480469 46.007812 Z M 287.347656 46.007812 " fill-opacity="1" fill-rule="nonzero"/></g></svg>