<svg xmlns="http://www.w3.org/2000/svg" xmlns:xlink="http://www.w3.org/1999/xlink" width="400" zoomAndPan="magnify" viewBox="0 0 300 299.999988" height="400" preserveAspectRatio="xMidYMid meet" version="1.0"><defs><clipPath id="8d337ae322"><path d="M 16 16 L 284 16 L 284 284.507812 L 16 284.507812 Z M 16 16 " clip-rule="nonzero"/></clipPath></defs><g clip-path="url(#8d337ae322)"><path fill="#ff5757" d="M 282.710938 106.992188 L 260.4375 29.042969 C 260.285156 28.515625 260.109375 28 259.910156 27.488281 C 259.707031 26.980469 259.480469 26.484375 259.230469 25.996094 C 258.980469 25.511719 258.707031 25.039062 258.410156 24.578125 C 258.113281 24.121094 257.796875 23.675781 257.457031 23.246094 C 257.117188 22.820312 256.753906 22.410156 256.375 22.015625 C 255.996094 21.621094 255.59375 21.25 255.179688 20.894531 C 254.761719 20.542969 254.328125 20.210938 253.878906 19.898438 C 253.425781 19.585938 252.964844 19.296875 252.484375 19.03125 C 252.007812 18.765625 251.515625 18.527344 251.015625 18.308594 C 250.511719 18.089844 250.003906 17.898438 249.480469 17.730469 C 248.960938 17.5625 248.433594 17.421875 247.898438 17.308594 C 247.363281 17.191406 246.824219 17.101562 246.28125 17.039062 C 245.738281 16.976562 245.191406 16.941406 244.644531 16.929688 C 244.097656 16.921875 243.554688 16.941406 243.007812 16.984375 C 242.460938 17.027344 241.921875 17.101562 241.382812 17.199219 C 240.84375 17.296875 240.3125 17.417969 239.785156 17.570312 L 161.835938 39.839844 C 161.308594 39.992188 160.792969 40.167969 160.285156 40.367188 C 159.777344 40.570312 159.277344 40.792969 158.792969 41.042969 C 158.304688 41.292969 157.832031 41.566406 157.371094 41.863281 C 156.910156 42.160156 156.46875 42.480469 156.039062 42.820312 C 155.609375 43.160156 155.199219 43.519531 154.808594 43.898438 C 154.414062 44.28125 154.039062 44.679688 153.6875 45.097656 C 153.332031 45.515625 153 45.949219 152.6875 46.398438 C 152.378906 46.847656 152.089844 47.3125 151.824219 47.789062 C 151.558594 48.269531 151.316406 48.757812 151.097656 49.261719 C 150.878906 49.761719 150.6875 50.273438 150.519531 50.792969 C 150.355469 51.316406 150.210938 51.84375 150.097656 52.378906 C 149.980469 52.914062 149.894531 53.453125 149.832031 53.996094 C 149.769531 54.539062 149.730469 55.085938 149.722656 55.632812 C 149.714844 56.179688 149.730469 56.722656 149.777344 57.269531 C 149.820312 57.816406 149.894531 58.355469 149.992188 58.894531 C 150.089844 59.433594 150.214844 59.964844 150.363281 60.492188 C 150.515625 61.015625 150.691406 61.535156 150.890625 62.042969 C 151.09375 62.550781 151.316406 63.050781 151.566406 63.535156 C 151.816406 64.023438 152.089844 64.496094 152.386719 64.957031 C 152.683594 65.417969 153.003906 65.859375 153.34375 66.289062 C 153.683594 66.71875 154.042969 67.128906 154.421875 67.519531 C 154.804688 67.914062 155.203125 68.289062 155.621094 68.640625 C 156.039062 68.996094 156.472656 69.328125 156.921875 69.640625 C 157.371094 69.949219 157.835938 70.238281 158.3125 70.503906 C 158.792969 70.769531 159.28125 71.011719 159.785156 71.230469 C 160.285156 71.445312 160.796875 71.640625 161.316406 71.808594 C 161.839844 71.972656 162.367188 72.117188 162.902344 72.230469 C 163.4375 72.347656 163.976562 72.433594 164.519531 72.496094 C 165.0625 72.558594 165.609375 72.597656 166.15625 72.605469 C 166.703125 72.613281 167.246094 72.59375 167.792969 72.550781 C 168.339844 72.507812 168.878906 72.433594 169.417969 72.335938 C 169.957031 72.238281 170.488281 72.113281 171.015625 71.964844 L 201.078125 63.375 L 144.664062 164.109375 L 120.929688 140.378906 C 120.339844 139.789062 119.71875 139.234375 119.070312 138.714844 C 118.417969 138.195312 117.742188 137.714844 117.035156 137.269531 C 116.332031 136.828125 115.601562 136.421875 114.851562 136.0625 C 114.101562 135.699219 113.335938 135.382812 112.546875 135.105469 C 111.761719 134.832031 110.964844 134.597656 110.152344 134.414062 C 109.339844 134.226562 108.519531 134.085938 107.691406 133.992188 C 106.867188 133.898438 106.035156 133.851562 105.203125 133.851562 C 104.371094 133.851562 103.539062 133.894531 102.710938 133.988281 C 101.882812 134.082031 101.0625 134.21875 100.253906 134.402344 C 99.441406 134.585938 98.640625 134.816406 97.855469 135.089844 C 97.066406 135.363281 96.300781 135.679688 95.546875 136.042969 C 94.796875 136.402344 94.070312 136.804688 93.363281 137.246094 C 92.65625 137.6875 91.976562 138.167969 91.324219 138.683594 C 90.675781 139.203125 90.054688 139.757812 89.464844 140.34375 C 88.875 140.929688 88.316406 141.550781 87.796875 142.199219 C 87.277344 142.851562 86.792969 143.527344 86.351562 144.230469 L 19.535156 250.019531 C 19.144531 250.636719 18.789062 251.273438 18.460938 251.925781 C 18.132812 252.578125 17.839844 253.242188 17.578125 253.921875 C 17.316406 254.605469 17.089844 255.296875 16.894531 256 C 16.699219 256.703125 16.542969 257.414062 16.417969 258.132812 C 16.292969 258.851562 16.207031 259.574219 16.152344 260.300781 C 16.101562 261.027344 16.082031 261.757812 16.101562 262.488281 C 16.121094 263.214844 16.175781 263.941406 16.265625 264.667969 C 16.355469 265.390625 16.480469 266.109375 16.640625 266.820312 C 16.800781 267.53125 16.996094 268.230469 17.226562 268.925781 C 17.457031 269.617188 17.71875 270.296875 18.015625 270.960938 C 18.3125 271.628906 18.640625 272.28125 19 272.914062 C 19.363281 273.546875 19.753906 274.164062 20.171875 274.757812 C 20.59375 275.355469 21.042969 275.929688 21.519531 276.480469 C 21.996094 277.03125 22.5 277.558594 23.027344 278.0625 C 23.558594 278.5625 24.109375 279.039062 24.683594 279.488281 C 25.261719 279.933594 25.855469 280.351562 26.472656 280.742188 C 27.089844 281.132812 27.722656 281.492188 28.375 281.816406 C 29.027344 282.144531 29.695312 282.4375 30.375 282.699219 C 31.054688 282.960938 31.75 283.191406 32.453125 283.382812 C 33.15625 283.578125 33.867188 283.734375 34.585938 283.859375 C 35.304688 283.984375 36.027344 284.070312 36.753906 284.125 C 37.480469 284.175781 38.210938 284.195312 38.9375 284.175781 C 39.667969 284.15625 40.394531 284.101562 41.117188 284.011719 C 41.84375 283.921875 42.558594 283.796875 43.269531 283.636719 C 43.984375 283.476562 44.683594 283.28125 45.375 283.050781 C 46.070312 282.820312 46.75 282.558594 47.414062 282.261719 C 48.082031 281.964844 48.730469 281.636719 49.367188 281.277344 C 50 280.917969 50.613281 280.527344 51.210938 280.105469 C 51.804688 279.683594 52.378906 279.234375 52.933594 278.757812 C 53.484375 278.28125 54.011719 277.777344 54.511719 277.25 C 55.015625 276.71875 55.492188 276.167969 55.9375 275.59375 C 56.386719 275.015625 56.804688 274.421875 57.195312 273.804688 L 109.132812 191.574219 L 133.972656 216.414062 C 134.578125 217.019531 135.21875 217.589844 135.890625 218.121094 C 136.5625 218.652344 137.261719 219.144531 137.992188 219.597656 C 138.71875 220.046875 139.472656 220.457031 140.25 220.820312 C 141.023438 221.1875 141.820312 221.503906 142.632812 221.777344 C 143.445312 222.050781 144.269531 222.277344 145.109375 222.453125 C 145.949219 222.628906 146.792969 222.757812 147.648438 222.839844 C 148.5 222.917969 149.355469 222.949219 150.214844 222.929688 C 151.070312 222.910156 151.925781 222.84375 152.773438 222.726562 C 153.625 222.609375 154.460938 222.441406 155.292969 222.226562 C 156.121094 222.011719 156.9375 221.753906 157.738281 221.445312 C 158.539062 221.136719 159.316406 220.78125 160.078125 220.382812 C 160.835938 219.984375 161.570312 219.542969 162.277344 219.058594 C 162.984375 218.578125 163.664062 218.054688 164.3125 217.492188 C 164.960938 216.929688 165.574219 216.335938 166.152344 215.703125 C 166.730469 215.070312 167.269531 214.40625 167.773438 213.710938 C 168.277344 213.015625 168.738281 212.292969 169.15625 211.546875 L 241.121094 83.039062 L 250.585938 116.171875 C 250.734375 116.695312 250.910156 117.214844 251.113281 117.722656 C 251.3125 118.230469 251.539062 118.730469 251.789062 119.214844 C 252.039062 119.703125 252.3125 120.175781 252.609375 120.636719 C 252.90625 121.09375 253.222656 121.539062 253.5625 121.96875 C 253.902344 122.394531 254.265625 122.808594 254.644531 123.199219 C 255.027344 123.59375 255.425781 123.964844 255.839844 124.320312 C 256.257812 124.675781 256.691406 125.007812 257.140625 125.316406 C 257.59375 125.628906 258.054688 125.917969 258.535156 126.183594 C 259.011719 126.449219 259.503906 126.691406 260.003906 126.910156 C 260.507812 127.125 261.019531 127.320312 261.539062 127.484375 C 262.058594 127.652344 262.589844 127.792969 263.121094 127.910156 C 263.65625 128.023438 264.195312 128.113281 264.742188 128.175781 C 265.285156 128.238281 265.828125 128.273438 266.375 128.285156 C 266.921875 128.292969 267.46875 128.273438 268.015625 128.230469 C 268.558594 128.183594 269.101562 128.113281 269.640625 128.015625 C 270.179688 127.917969 270.710938 127.792969 271.238281 127.644531 C 271.761719 127.492188 272.28125 127.316406 272.789062 127.117188 C 273.296875 126.914062 273.796875 126.6875 274.28125 126.4375 C 274.769531 126.1875 275.242188 125.914062 275.703125 125.621094 C 276.160156 125.324219 276.605469 125.003906 277.035156 124.664062 C 277.460938 124.324219 277.871094 123.964844 278.265625 123.582031 C 278.660156 123.203125 279.03125 122.804688 279.386719 122.386719 C 279.742188 121.96875 280.074219 121.535156 280.382812 121.085938 C 280.695312 120.636719 280.984375 120.171875 281.25 119.695312 C 281.515625 119.214844 281.757812 118.726562 281.976562 118.222656 C 282.191406 117.722656 282.382812 117.210938 282.550781 116.6875 C 282.71875 116.167969 282.859375 115.640625 282.976562 115.105469 C 283.089844 114.570312 283.179688 114.03125 283.242188 113.488281 C 283.304688 112.945312 283.339844 112.398438 283.351562 111.851562 C 283.359375 111.304688 283.339844 110.757812 283.296875 110.214844 C 283.25 109.667969 283.179688 109.125 283.082031 108.589844 C 282.984375 108.050781 282.859375 107.519531 282.710938 106.992188 Z M 282.710938 106.992188 " fill-opacity="1" fill-rule="nonzero"/></g></svg>