<svg xmlns="http://www.w3.org/2000/svg" xmlns:xlink="http://www.w3.org/1999/xlink" width="400" zoomAndPan="magnify" viewBox="0 0 300 299.999988" height="400" preserveAspectRatio="xMidYMid meet" version="1.0"><defs><clipPath id="e0887d4289"><path d="M 9.050781 54.417969 L 290.953125 54.417969 L 290.953125 263.285156 L 9.050781 263.285156 Z M 9.050781 54.417969 " clip-rule="nonzero"/></clipPath></defs><g clip-path="url(#e0887d4289)"><path fill="#828ea8" d="M 278.566406 121.722656 L 290.917969 56.730469 C 291.175781 55.378906 289.992188 54.195312 288.640625 54.453125 L 223.648438 66.804688 C 222.113281 67.097656 221.53125 68.988281 222.636719 70.097656 L 238.585938 86.046875 C 239.347656 86.808594 239.347656 88.039062 238.585938 88.800781 L 164.988281 162.398438 C 164.230469 163.160156 162.996094 163.160156 162.234375 162.398438 L 128.472656 128.636719 C 127.710938 127.875 126.476562 127.875 125.714844 128.636719 L 9.621094 244.730469 C 8.863281 245.492188 8.863281 246.722656 9.621094 247.484375 L 24.851562 262.714844 C 25.609375 263.472656 26.84375 263.472656 27.605469 262.714844 L 125.714844 164.601562 C 126.476562 163.839844 127.710938 163.839844 128.472656 164.601562 L 162.234375 198.367188 C 162.996094 199.125 164.230469 199.125 164.988281 198.367188 L 256.570312 106.785156 C 257.332031 106.023438 258.566406 106.023438 259.324219 106.785156 L 275.277344 122.734375 C 276.382812 123.84375 278.273438 123.257812 278.566406 121.722656 " fill-opacity="1" fill-rule="nonzero"/></g></svg>