<svg xmlns="http://www.w3.org/2000/svg" xmlns:xlink="http://www.w3.org/1999/xlink" width="400" zoomAndPan="magnify" viewBox="0 0 300 299.999988" height="400" preserveAspectRatio="xMidYMid meet" version="1.0"><defs><clipPath id="24d1031fed"><path d="M 75 19.371094 L 224 19.371094 L 224 280.371094 L 75 280.371094 Z M 75 19.371094 " clip-rule="nonzero"/></clipPath><clipPath id="fa71471dfb"><path d="M 12.132812 37 L 132 37 L 132 157 L 12.132812 157 Z M 12.132812 37 " clip-rule="nonzero"/></clipPath></defs><g clip-path="url(#24d1031fed)"><path fill="#828ea8" d="M 215.203125 21.050781 C 207.472656 17.117188 198.011719 20.203125 194.078125 27.941406 L 77.230469 257.761719 C 73.296875 265.5 76.382812 274.957031 84.113281 278.890625 C 86.394531 280.050781 88.824219 280.597656 91.222656 280.597656 C 96.945312 280.597656 102.464844 277.457031 105.242188 272.003906 L 222.089844 42.179688 C 226.023438 34.445312 222.9375 24.984375 215.203125 21.050781 Z M 215.203125 21.050781 " fill-opacity="1" fill-rule="nonzero"/></g><g clip-path="url(#fa71471dfb)"><path fill="#828ea8" d="M 131.304688 96.738281 C 131.304688 63.878906 104.574219 37.152344 71.71875 37.152344 C 38.863281 37.152344 12.132812 63.878906 12.132812 96.738281 C 12.132812 129.59375 38.863281 156.324219 71.71875 156.324219 C 104.574219 156.324219 131.304688 129.59375 131.304688 96.738281 Z M 71.71875 124.902344 C 56.191406 124.902344 43.554688 112.265625 43.554688 96.738281 C 43.554688 81.207031 56.191406 68.574219 71.71875 68.574219 C 87.246094 68.574219 99.882812 81.207031 99.882812 96.738281 C 99.882812 112.265625 87.246094 124.902344 71.71875 124.902344 Z M 71.71875 124.902344 " fill-opacity="1" fill-rule="nonzero"/></g><path fill="#828ea8" d="M 228.3125 143.621094 C 195.457031 143.621094 168.726562 170.351562 168.726562 203.207031 C 168.726562 236.0625 195.453125 262.792969 228.3125 262.792969 C 261.167969 262.792969 287.898438 236.0625 287.898438 203.207031 C 287.898438 170.347656 261.167969 143.621094 228.3125 143.621094 Z M 228.3125 231.367188 C 212.78125 231.367188 200.148438 218.734375 200.148438 203.207031 C 200.148438 187.675781 212.78125 175.042969 228.3125 175.042969 C 243.839844 175.042969 256.476562 187.675781 256.476562 203.207031 C 256.476562 218.734375 243.839844 231.367188 228.3125 231.367188 Z M 228.3125 231.367188 " fill-opacity="1" fill-rule="nonzero"/></svg>