<svg xmlns="http://www.w3.org/2000/svg" xmlns:xlink="http://www.w3.org/1999/xlink" width="400" zoomAndPan="magnify" viewBox="0 0 300 299.999988" height="400" preserveAspectRatio="xMidYMid meet" version="1.0"><defs><clipPath id="c86db458f2"><path d="M 8.25 10.730469 L 288.75 10.730469 L 288.75 291.230469 L 8.25 291.230469 Z M 8.25 10.730469 " clip-rule="nonzero"/></clipPath></defs><path fill="#828ea8" d="M 131.175781 223.617188 C 131.175781 213.433594 138.46875 206.074219 148.394531 206.074219 C 158.898438 206.074219 165.609375 213.433594 165.609375 223.617188 C 165.609375 233.523438 158.898438 241.164062 148.394531 241.164062 C 138.179688 241.164062 131.175781 233.523438 131.175781 223.617188 Z M 137.171875 180.976562 L 129.066406 80.269531 C 128.664062 75.230469 137.511719 71.125 148.394531 71.125 C 159.28125 71.125 168.121094 75.253906 167.71875 80.269531 L 159.613281 180.976562 C 159.339844 184.398438 154.414062 187.09375 148.394531 187.09375 C 142.386719 187.09375 137.449219 184.398438 137.171875 180.976562 Z M 137.171875 180.976562 " fill-opacity="1" fill-rule="nonzero"/><g clip-path="url(#c86db458f2)"><path fill="#828ea8" d="M 148.394531 291.019531 C 71.117188 291.019531 8.25 228.152344 8.25 150.875 C 8.25 73.597656 71.117188 10.730469 148.394531 10.730469 C 225.667969 10.730469 288.535156 73.597656 288.535156 150.875 C 288.535156 228.152344 225.667969 291.019531 148.394531 291.019531 Z M 148.394531 34.625 C 84.289062 34.625 32.140625 86.773438 32.140625 150.875 C 32.140625 214.976562 84.289062 267.128906 148.394531 267.128906 C 212.496094 267.128906 264.644531 214.976562 264.644531 150.875 C 264.644531 86.773438 212.496094 34.625 148.394531 34.625 Z M 148.394531 34.625 " fill-opacity="1" fill-rule="nonzero"/></g></svg>